<svg width="123" height="78" viewBox="0 0 123 78" fill="none" xmlns="http://www.w3.org/2000/svg">
<path fill-rule="evenodd" clip-rule="evenodd" d="M0 0H123V68H89.6161V59.1162H103.671V54.8731H89.6161V44.2652H104.202V40.0221H89.6161H87.6006H85.1077V68H76.5641C78.0278 65.2848 78.7596 62.1467 78.7596 58.5858C78.7596 54.8731 77.964 51.6377 76.3728 48.8796C74.7817 46.0862 72.5894 43.9116 69.796 42.3558C67.0026 40.8 63.8025 40.0221 60.1959 40.0221H53.566H51.5505H49.0576V68H24.5083V62.2986H30.0775C32.4819 62.2986 34.6212 61.8566 36.4952 60.9726C38.4046 60.0533 39.9074 58.7626 41.0035 57.1007C42.135 55.4035 42.7008 53.4233 42.7008 51.1603C42.7008 48.862 42.135 46.8818 41.0035 45.2199C39.9074 43.558 38.4046 42.2851 36.4952 41.4011C34.6212 40.4818 32.4819 40.0221 30.0775 40.0221H24.5083H22.4928H20V68H0V0ZM71.1739 68H53.566V44.5304H60.1959C62.2821 44.5304 64.1915 44.8663 65.9241 45.5382C67.6567 46.1746 69.1418 47.1117 70.3794 48.3493C71.617 49.5515 72.5717 51.0189 73.2435 52.7515C73.9154 54.4841 74.2513 56.4289 74.2513 58.5858C74.2513 60.7428 73.9154 62.6875 73.2435 64.4202C72.7233 65.7619 72.0334 66.9551 71.1739 68ZM67.2163 29.812V10.8505H69.2593V29.812H67.2163ZM47.5733 14.9588C47.3009 14.6833 47.1647 14.3673 47.1647 14.0107C47.1647 13.638 47.3009 13.3219 47.5733 13.0626C47.8628 12.8033 48.1948 12.6737 48.5693 12.6737C48.9609 12.6737 49.2929 12.8033 49.5653 13.0626C49.8377 13.3219 49.9739 13.638 49.9739 14.0107C49.9739 14.3673 49.8377 14.6833 49.5653 14.9588C49.2929 15.2181 48.9609 15.3477 48.5693 15.3477C48.1948 15.3477 47.8628 15.2181 47.5733 14.9588ZM47.5478 29.812V18.6296H49.5909V29.812H47.5478ZM22.22 35.1601V27.8858C22.6041 28.4965 23.0808 28.9846 23.6502 29.3501C24.3993 29.8201 25.2591 30.0551 26.2295 30.0551C27.3021 30.0551 28.2726 29.8201 29.1409 29.3501C30.0262 28.8801 30.7328 28.2076 31.2606 27.3324C31.7884 26.4573 32.0523 25.42 32.0523 24.2208C32.0523 23.0053 31.7884 21.9681 31.2606 21.1091C30.7328 20.234 30.0262 19.5614 29.1409 19.0914C28.2726 18.6214 27.3021 18.3865 26.2295 18.3865C25.2591 18.3865 24.3993 18.6214 23.6502 19.0914C23.0808 19.457 22.6041 19.9451 22.22 20.5557V18.6296H20.177V35.1601H22.22ZM22.7819 26.4086C22.4073 25.809 22.22 25.0797 22.22 24.2208C22.22 23.3618 22.4073 22.6325 22.7819 22.0329C23.1564 21.4333 23.6331 20.9795 24.212 20.6716C24.7909 20.3636 25.3783 20.2097 25.9742 20.2097C26.7063 20.2097 27.3702 20.3636 27.9661 20.6716C28.5791 20.9795 29.0643 21.4333 29.4218 22.0329C29.7964 22.6325 29.9837 23.3618 29.9837 24.2208C29.9837 25.0797 29.7964 25.809 29.4218 26.4086C29.0643 27.0083 28.5791 27.4621 27.9661 27.77C27.3702 28.0779 26.7063 28.2319 25.9742 28.2319C25.3783 28.2319 24.7909 28.0779 24.212 27.77C23.6331 27.4621 23.1564 27.0083 22.7819 26.4086ZM35.7888 26.36C35.7888 25.9549 35.891 25.6064 36.0953 25.3147C36.2996 25.023 36.6061 24.7961 37.0147 24.634C37.4403 24.472 37.9851 24.3909 38.6491 24.3909C39.3642 24.3909 40.0367 24.4801 40.6666 24.6583C41.0035 24.745 41.3355 24.8641 41.6626 25.0157V25.4363C41.6626 26.0197 41.5094 26.5383 41.2029 26.9921C40.9135 27.4296 40.5134 27.77 40.0026 28.0131C39.5089 28.2562 38.9471 28.3777 38.3171 28.3777C37.8234 28.3777 37.3807 28.3048 36.9891 28.1589C36.6146 27.9969 36.3166 27.7619 36.0953 27.454C35.891 27.146 35.7888 26.7814 35.7888 26.36ZM40.4368 23.1511C40.933 23.304 41.3416 23.4806 41.6626 23.681V22.0572C41.6626 21.6683 41.5945 21.3522 41.4583 21.1091C41.3221 20.8498 41.1263 20.6473 40.8709 20.5014C40.6326 20.3555 40.3517 20.2502 40.0282 20.1854C39.7047 20.1205 39.3642 20.0881 39.0067 20.0881C38.4278 20.0881 37.9 20.153 37.4233 20.2826C36.9636 20.4123 36.572 20.5662 36.2485 20.7445C35.925 20.9228 35.6697 21.0767 35.4824 21.2064L34.4864 19.7721C34.929 19.4642 35.5335 19.1563 36.2996 18.8483C37.0828 18.5404 38.0192 18.3865 39.1088 18.3865C40.0282 18.3865 40.8284 18.5242 41.5094 18.7997C42.2075 19.059 42.7438 19.4399 43.1183 19.9423C43.5099 20.4447 43.7057 21.0605 43.7057 21.7898V29.812H41.6626V28.3255C41.5812 28.4466 41.4875 28.5612 41.3817 28.6694C40.939 29.1394 40.3857 29.4879 39.7217 29.7148C39.0748 29.9416 38.4278 30.0551 37.7808 30.0551C37.0657 30.0551 36.3932 29.9173 35.7633 29.6418C35.1504 29.3501 34.6566 28.9368 34.2821 28.402C33.9075 27.8672 33.7202 27.219 33.7202 26.4573C33.7202 25.3714 34.1203 24.5044 34.9205 23.8561C35.7378 23.1917 36.87 22.8594 38.3171 22.8594C39.1684 22.8594 39.875 22.9567 40.4368 23.1511ZM61.3325 29.812H63.3755V22.7622C63.3755 21.4171 63.0095 20.3555 62.2774 19.5776C61.5623 18.7835 60.5834 18.3865 59.3405 18.3865C58.5744 18.3865 57.8933 18.5485 57.2974 18.8727C56.7186 19.1968 56.2333 19.6992 55.8418 20.3798V18.6296H53.7987V29.812H55.8418V23.0053C55.8418 22.4543 55.9609 21.9681 56.1993 21.5467C56.4547 21.1253 56.8037 20.8012 57.2464 20.5743C57.7061 20.3312 58.2338 20.2097 58.8297 20.2097C59.647 20.2097 60.2684 20.4447 60.694 20.9147C61.1197 21.3846 61.3325 22.0815 61.3325 23.0053V29.812ZM77.6478 30.0551C78.9077 30.0551 79.9974 29.8201 80.9167 29.3501C81.8531 28.8639 82.6278 28.1508 83.2407 27.2109L81.5807 26.2142C81.1551 26.8948 80.6358 27.4053 80.0229 27.7457C79.41 28.0698 78.7034 28.2319 77.9032 28.2319C77.103 28.2319 76.422 28.0698 75.8602 27.7457C75.2983 27.4215 74.8727 26.9516 74.5833 26.3357C74.3633 25.8677 74.2269 25.3248 74.1741 24.707H83.4195V24.4882C83.4365 24.3585 83.445 24.237 83.445 24.1235C83.445 22.9405 83.2237 21.9195 82.781 21.0605C82.3384 20.2016 81.6999 19.5452 80.8657 19.0914C80.0484 18.6214 79.061 18.3865 77.9032 18.3865C76.7455 18.3865 75.724 18.6296 74.8386 19.1157C73.9703 19.6019 73.2893 20.2826 72.7956 21.1578C72.3189 22.0329 72.0805 23.0539 72.0805 24.2208C72.0805 25.3714 72.3103 26.3843 72.77 27.2595C73.2467 28.1346 73.9022 28.8234 74.7365 29.3258C75.5878 29.812 76.5582 30.0551 77.6478 30.0551ZM74.6088 21.9357C74.4456 22.2646 74.3257 22.6374 74.2491 23.0539H81.2118C81.1725 22.5213 81.0316 22.0513 80.7891 21.6439C80.5166 21.1578 80.1336 20.7769 79.6398 20.5014C79.1461 20.2259 78.5672 20.0881 77.9032 20.0881C77.1201 20.0881 76.4475 20.2502 75.8857 20.5743C75.3409 20.8822 74.9153 21.336 74.6088 21.9357ZM85.1216 27.3324L86.7305 26.3843C86.9688 26.7247 87.2413 27.0407 87.5477 27.3324C87.8542 27.6241 88.2032 27.8591 88.5948 28.0374C89.0034 28.1995 89.4461 28.2805 89.9228 28.2805C90.5016 28.2805 90.9528 28.1589 91.2763 27.9158C91.6168 27.6565 91.7871 27.3081 91.7871 26.8705C91.7871 26.4816 91.6509 26.1574 91.3785 25.8981C91.1231 25.6226 90.7911 25.3957 90.3825 25.2175C89.9739 25.023 89.5397 24.8447 89.08 24.6827C88.5692 24.4882 88.05 24.2613 87.5222 24.002C87.0114 23.7265 86.5773 23.378 86.2197 22.9567C85.8792 22.5191 85.709 21.9762 85.709 21.3279C85.709 20.6635 85.8877 20.1124 86.2453 19.6749C86.6198 19.2373 87.0965 18.9132 87.6754 18.7025C88.2713 18.4918 88.8842 18.3865 89.5142 18.3865C90.1441 18.3865 90.7315 18.4837 91.2763 18.6782C91.8381 18.8727 92.3319 19.132 92.7575 19.4561C93.1832 19.7802 93.5152 20.153 93.7535 20.5743L92.1191 21.571C91.7956 21.1497 91.387 20.8012 90.8932 20.5257C90.4165 20.2502 89.8717 20.1124 89.2588 20.1124C88.8331 20.1124 88.4671 20.2016 88.1606 20.3798C87.8542 20.5581 87.7009 20.8336 87.7009 21.2064C87.7009 21.4981 87.8201 21.7574 88.0585 21.9843C88.2968 22.2112 88.6033 22.4138 88.9779 22.592C89.3524 22.7703 89.744 22.9405 90.1526 23.1025C90.8336 23.3618 91.4551 23.6454 92.0169 23.9534C92.5788 24.2451 93.0214 24.6016 93.3449 25.023C93.6854 25.4444 93.8557 25.9873 93.8557 26.6517C93.8557 27.6241 93.4811 28.4344 92.732 29.0827C91.9999 29.731 91.0294 30.0551 89.8206 30.0551C89.0375 30.0551 88.3309 29.9254 87.7009 29.6661C87.071 29.3906 86.5347 29.0422 86.092 28.6208C85.6664 28.1995 85.3429 27.77 85.1216 27.3324ZM97.0306 26.3843L95.4217 27.3324C95.643 27.77 95.9665 28.1995 96.3921 28.6208C96.8348 29.0422 97.3711 29.3906 98.001 29.6661C98.631 29.9254 99.3376 30.0551 100.121 30.0551C101.33 30.0551 102.3 29.731 103.032 29.0827C103.781 28.4344 104.156 27.6241 104.156 26.6517C104.156 25.9873 103.986 25.4444 103.645 25.023C103.322 24.6016 102.879 24.2451 102.317 23.9534C101.755 23.6454 101.134 23.3618 100.453 23.1025C100.044 22.9405 99.6525 22.7703 99.278 22.592C98.9034 22.4138 98.5969 22.2112 98.3586 21.9843C98.1202 21.7574 98.001 21.4981 98.001 21.2064C98.001 20.8336 98.1543 20.5581 98.4607 20.3798C98.7672 20.2016 99.1332 20.1124 99.5589 20.1124C100.172 20.1124 100.717 20.2502 101.193 20.5257C101.687 20.8012 102.096 21.1497 102.419 21.571L104.054 20.5743C103.815 20.153 103.483 19.7802 103.058 19.4561C102.632 19.132 102.138 18.8727 101.576 18.6782C101.032 18.4837 100.444 18.3865 99.8143 18.3865C99.1843 18.3865 98.5714 18.4918 97.9755 18.7025C97.3966 18.9132 96.9199 19.2373 96.5454 19.6749C96.1878 20.1124 96.0091 20.6635 96.0091 21.3279C96.0091 21.9762 96.1793 22.5191 96.5198 22.9567C96.8774 23.378 97.3115 23.7265 97.8223 24.002C98.3501 24.2613 98.8693 24.4882 99.3801 24.6827C99.8398 24.8447 100.274 25.023 100.683 25.2175C101.091 25.3957 101.423 25.6226 101.679 25.8981C101.951 26.1574 102.087 26.4816 102.087 26.8705C102.087 27.3081 101.917 27.6565 101.576 27.9158C101.253 28.1589 100.802 28.2805 100.223 28.2805C99.7462 28.2805 99.3035 28.1995 98.8949 28.0374C98.5033 27.8591 98.1543 27.6241 97.8478 27.3324C97.5414 27.0407 97.2689 26.7247 97.0306 26.3843ZM30.0775 58.0554H24.5083V44.2652H30.0775C32.4819 44.2652 34.4267 44.8487 35.9118 46.0155C37.4322 47.147 38.1925 48.862 38.1925 51.1603C38.1925 53.4233 37.4322 55.1383 35.9118 56.3051C34.4267 57.472 32.4819 58.0554 30.0775 58.0554Z" fill="#FF4949"/>
<path fill-rule="evenodd" clip-rule="evenodd" d="M20 68V77.1496H24.5083V68H20ZM49.0576 68V77.1496H51.5505H53.566H60.1959C63.8025 77.1496 67.0026 76.3717 69.796 74.8158C72.5894 73.26 74.7817 71.1031 76.3728 68.3451C76.4379 68.2308 76.5017 68.1158 76.5641 68H71.1739C70.9234 68.3044 70.6586 68.5962 70.3794 68.8754C69.1418 70.0777 67.6567 71.0147 65.9241 71.6865C64.1915 72.323 62.2821 72.6412 60.1959 72.6412H53.566V68H49.0576ZM85.1077 68V77.1496H89.6161V68H85.1077Z" fill="#FF4949"/>
</svg>
